<svg xmlns="http://www.w3.org/2000/svg" width="900" height="360" viewBox="0 0 900 360" role="img" aria-label="David Rose — AI Systems Engineer">
  <defs>
    <style>
      .bg { fill: #0d1117; }
      .frame { stroke: #30363d; fill: none; }
      .name { font: 700 34px 'Segoe UI', -apple-system, system-ui, sans-serif; fill: #e6edf3; }
      .role { font: 600 17px 'Segoe UI', -apple-system, system-ui, sans-serif; fill: #58a6ff; letter-spacing: 0.3px; }
      .tagline { font: 400 15px 'Segoe UI', -apple-system, system-ui, sans-serif; fill: #8b949e; }
      .handle { font: 500 13px 'SF Mono', ui-monospace, 'Consolas', monospace; fill: #6e7681; }
      .chip-bg { fill: #161b22; stroke: #30363d; stroke-width: 1; }
      .chip-dot { fill: #58a6ff; }
      .chip-text { font: 500 13px 'Segoe UI', -apple-system, system-ui, sans-serif; fill: #c9d1d9; }
      .stat-num { font: 700 22px 'SF Mono', ui-monospace, 'Consolas', monospace; fill: #e6edf3; }
      .stat-label { font: 400 12px 'Segoe UI', -apple-system, system-ui, sans-serif; fill: #8b949e; }
      .cell { fill: #58a6ff; }
      .divider { stroke: #21262d; stroke-width: 1; }

      @media (prefers-color-scheme: light) {
        .bg { fill: #ffffff; }
        .frame { stroke: #d0d7de; }
        .name { fill: #1f2328; }
        .role { fill: #0969da; }
        .tagline { fill: #636c76; }
        .handle { fill: #818b98; }
        .chip-bg { fill: #f6f8fa; stroke: #d0d7de; }
        .chip-dot { fill: #0969da; }
        .chip-text { fill: #1f2328; }
        .stat-num { fill: #1f2328; }
        .stat-label { fill: #636c76; }
        .cell { fill: #0969da; }
        .divider { stroke: #eaeef2; }
      }

      @keyframes fade-in { from { opacity: 0; } to { opacity: 1; } }
      .grid { animation: fade-in 1.2s ease-out forwards; }
    </style>
  </defs>

  <rect width="900" height="360" class="bg" rx="12"/>
  <rect x="1" y="1" width="898" height="358" class="frame" stroke-width="1" rx="12"/>

  <!-- Identity -->
  <text x="36" y="62" class="name">David Rose</text>
  <text x="864" y="40" class="handle" text-anchor="end">@cipher982</text>
  <text x="36" y="90" class="role">AI Systems Engineer</text>
  <text x="36" y="120" class="tagline">I build autonomous agents, LLM tooling, and ship real products.</text>

  <!-- Flagship chips -->
  
    <g transform="translate(36, 150)">
      <rect width="96" height="30" rx="15" class="chip-bg"/>
      <circle cx="16" cy="15" r="3" class="chip-dot"/>
      <text x="28" y="20" class="chip-text">Longhouse</text>
    </g>
    <g transform="translate(144, 150)">
      <rect width="145" height="30" rx="15" class="chip-bg"/>
      <circle cx="16" cy="15" r="3" class="chip-dot"/>
      <text x="28" y="20" class="chip-text">Stop Sign Nanny</text>
    </g>
    <g transform="translate(301, 150)">
      <rect width="137" height="30" rx="15" class="chip-bg"/>
      <circle cx="16" cy="15" r="3" class="chip-dot"/>
      <text x="28" y="20" class="chip-text">LLM Benchmarks</text>
    </g>

  <line x1="36" y1="198" x2="864" y2="198" class="divider"/>

  <!-- Shipping metrics -->
  <g transform="translate(36, 224)">
    <text x="0" y="0" class="stat-num">600</text>
    <text x="0" y="18" class="stat-label">commits · 30d</text>

    <text x="150" y="0" class="stat-num">18</text>
    <text x="150" y="18" class="stat-label">active repos</text>
  </g>
  <text x="864" y="224" class="stat-label" text-anchor="end">commit activity · past year</text>

  <!-- Full-year contribution calendar -->
  <g class="grid">
  <rect x="160" y="268" width="9" height="9" rx="2" class="cell" fill-opacity="0.09"/>
  <rect x="160" y="279" width="9" height="9" rx="2" class="cell" fill-opacity="0.62"/>
  <rect x="160" y="290" width="9" height="9" rx="2" class="cell" fill-opacity="0.62"/>
  <rect x="160" y="301" width="9" height="9" rx="2" class="cell" fill-opacity="0.40"/>
  <rect x="160" y="312" width="9" height="9" rx="2" class="cell" fill-opacity="0.40"/>
  <rect x="160" y="323" width="9" height="9" rx="2" class="cell" fill-opacity="0.62"/>
  <rect x="160" y="334" width="9" height="9" rx="2" class="cell" fill-opacity="0.09"/>
  <rect x="170" y="268" width="9" height="9" rx="2" class="cell" fill-opacity="0.40"/>
  <rect x="170" y="279" width="9" height="9" rx="2" class="cell" fill-opacity="0.09"/>
  <rect x="170" y="290" width="9" height="9" rx="2" class="cell" fill-opacity="0.09"/>
  <rect x="170" y="301" width="9" height="9" rx="2" class="cell" fill-opacity="0.40"/>
  <rect x="170" y="312" width="9" height="9" rx="2" class="cell" fill-opacity="0.62"/>
  <rect x="170" y="323" width="9" height="9" rx="2" class="cell" fill-opacity="0.40"/>
  <rect x="170" y="334" width="9" height="9" rx="2" class="cell" fill-opacity="0.40"/>
  <rect x="182" y="268" width="9" height="9" rx="2" class="cell" fill-opacity="0.62"/>
  <rect x="182" y="279" width="9" height="9" rx="2" class="cell" fill-opacity="0.82"/>
  <rect x="182" y="290" width="9" height="9" rx="2" class="cell" fill-opacity="0.62"/>
  <rect x="182" y="301" width="9" height="9" rx="2" class="cell" fill-opacity="0.82"/>
  <rect x="182" y="312" width="9" height="9" rx="2" class="cell" fill-opacity="0.62"/>
  <rect x="182" y="323" width="9" height="9" rx="2" class="cell" fill-opacity="0.09"/>
  <rect x="182" y="334" width="9" height="9" rx="2" class="cell" fill-opacity="0.62"/>
  <rect x="192" y="268" width="9" height="9" rx="2" class="cell" fill-opacity="1.00"/>
  <rect x="192" y="279" width="9" height="9" rx="2" class="cell" fill-opacity="0.62"/>
  <rect x="192" y="290" width="9" height="9" rx="2" class="cell" fill-opacity="0.62"/>
  <rect x="192" y="301" width="9" height="9" rx="2" class="cell" fill-opacity="0.62"/>
  <rect x="192" y="312" width="9" height="9" rx="2" class="cell" fill-opacity="1.00"/>
  <rect x="192" y="323" width="9" height="9" rx="2" class="cell" fill-opacity="0.82"/>
  <rect x="192" y="334" width="9" height="9" rx="2" class="cell" fill-opacity="0.40"/>
  <rect x="204" y="268" width="9" height="9" rx="2" class="cell" fill-opacity="0.62"/>
  <rect x="204" y="279" width="9" height="9" rx="2" class="cell" fill-opacity="0.62"/>
  <rect x="204" y="290" width="9" height="9" rx="2" class="cell" fill-opacity="1.00"/>
  <rect x="204" y="301" width="9" height="9" rx="2" class="cell" fill-opacity="1.00"/>
  <rect x="204" y="312" width="9" height="9" rx="2" class="cell" fill-opacity="1.00"/>
  <rect x="204" y="323" width="9" height="9" rx="2" class="cell" fill-opacity="0.62"/>
  <rect x="204" y="334" width="9" height="9" rx="2" class="cell" fill-opacity="0.40"/>
  <rect x="214" y="268" width="9" height="9" rx="2" class="cell" fill-opacity="1.00"/>
  <rect x="214" y="279" width="9" height="9" rx="2" class="cell" fill-opacity="0.82"/>
  <rect x="214" y="290" width="9" height="9" rx="2" class="cell" fill-opacity="0.82"/>
  <rect x="214" y="301" width="9" height="9" rx="2" class="cell" fill-opacity="0.82"/>
  <rect x="214" y="312" width="9" height="9" rx="2" class="cell" fill-opacity="0.82"/>
  <rect x="214" y="323" width="9" height="9" rx="2" class="cell" fill-opacity="0.62"/>
  <rect x="214" y="334" width="9" height="9" rx="2" class="cell" fill-opacity="0.82"/>
  <rect x="226" y="268" width="9" height="9" rx="2" class="cell" fill-opacity="0.62"/>
  <rect x="226" y="279" width="9" height="9" rx="2" class="cell" fill-opacity="0.82"/>
  <rect x="226" y="290" width="9" height="9" rx="2" class="cell" fill-opacity="0.82"/>
  <rect x="226" y="301" width="9" height="9" rx="2" class="cell" fill-opacity="0.62"/>
  <rect x="226" y="312" width="9" height="9" rx="2" class="cell" fill-opacity="0.82"/>
  <rect x="226" y="323" width="9" height="9" rx="2" class="cell" fill-opacity="0.82"/>
  <rect x="226" y="334" width="9" height="9" rx="2" class="cell" fill-opacity="0.40"/>
  <rect x="236" y="268" width="9" height="9" rx="2" class="cell" fill-opacity="0.09"/>
  <rect x="236" y="279" width="9" height="9" rx="2" class="cell" fill-opacity="0.40"/>
  <rect x="236" y="290" width="9" height="9" rx="2" class="cell" fill-opacity="0.40"/>
  <rect x="236" y="301" width="9" height="9" rx="2" class="cell" fill-opacity="0.40"/>
  <rect x="236" y="312" width="9" height="9" rx="2" class="cell" fill-opacity="1.00"/>
  <rect x="236" y="323" width="9" height="9" rx="2" class="cell" fill-opacity="0.40"/>
  <rect x="236" y="334" width="9" height="9" rx="2" class="cell" fill-opacity="0.62"/>
  <rect x="248" y="268" width="9" height="9" rx="2" class="cell" fill-opacity="0.62"/>
  <rect x="248" y="279" width="9" height="9" rx="2" class="cell" fill-opacity="0.40"/>
  <rect x="248" y="290" width="9" height="9" rx="2" class="cell" fill-opacity="0.40"/>
  <rect x="248" y="301" width="9" height="9" rx="2" class="cell" fill-opacity="0.40"/>
  <rect x="248" y="312" width="9" height="9" rx="2" class="cell" fill-opacity="0.40"/>
  <rect x="248" y="323" width="9" height="9" rx="2" class="cell" fill-opacity="0.62"/>
  <rect x="248" y="334" width="9" height="9" rx="2" class="cell" fill-opacity="0.09"/>
  <rect x="258" y="268" width="9" height="9" rx="2" class="cell" fill-opacity="0.09"/>
  <rect x="258" y="279" width="9" height="9" rx="2" class="cell" fill-opacity="0.62"/>
  <rect x="258" y="290" width="9" height="9" rx="2" class="cell" fill-opacity="0.62"/>
  <rect x="258" y="301" width="9" height="9" rx="2" class="cell" fill-opacity="0.62"/>
  <rect x="258" y="312" width="9" height="9" rx="2" class="cell" fill-opacity="0.09"/>
  <rect x="258" y="323" width="9" height="9" rx="2" class="cell" fill-opacity="0.40"/>
  <rect x="258" y="334" width="9" height="9" rx="2" class="cell" fill-opacity="0.40"/>
  <rect x="270" y="268" width="9" height="9" rx="2" class="cell" fill-opacity="0.62"/>
  <rect x="270" y="279" width="9" height="9" rx="2" class="cell" fill-opacity="1.00"/>
  <rect x="270" y="290" width="9" height="9" rx="2" class="cell" fill-opacity="1.00"/>
  <rect x="270" y="301" width="9" height="9" rx="2" class="cell" fill-opacity="0.62"/>
  <rect x="270" y="312" width="9" height="9" rx="2" class="cell" fill-opacity="0.62"/>
  <rect x="270" y="323" width="9" height="9" rx="2" class="cell" fill-opacity="0.82"/>
  <rect x="270" y="334" width="9" height="9" rx="2" class="cell" fill-opacity="0.62"/>
  <rect x="280" y="268" width="9" height="9" rx="2" class="cell" fill-opacity="0.40"/>
  <rect x="280" y="279" width="9" height="9" rx="2" class="cell" fill-opacity="0.40"/>
  <rect x="280" y="290" width="9" height="9" rx="2" class="cell" fill-opacity="0.40"/>
  <rect x="280" y="301" width="9" height="9" rx="2" class="cell" fill-opacity="0.40"/>
  <rect x="280" y="312" width="9" height="9" rx="2" class="cell" fill-opacity="0.82"/>
  <rect x="280" y="323" width="9" height="9" rx="2" class="cell" fill-opacity="0.40"/>
  <rect x="280" y="334" width="9" height="9" rx="2" class="cell" fill-opacity="0.40"/>
  <rect x="292" y="268" width="9" height="9" rx="2" class="cell" fill-opacity="0.40"/>
  <rect x="292" y="279" width="9" height="9" rx="2" class="cell" fill-opacity="0.62"/>
  <rect x="292" y="290" width="9" height="9" rx="2" class="cell" fill-opacity="0.62"/>
  <rect x="292" y="301" width="9" height="9" rx="2" class="cell" fill-opacity="0.82"/>
  <rect x="292" y="312" width="9" height="9" rx="2" class="cell" fill-opacity="0.62"/>
  <rect x="292" y="323" width="9" height="9" rx="2" class="cell" fill-opacity="0.40"/>
  <rect x="292" y="334" width="9" height="9" rx="2" class="cell" fill-opacity="0.40"/>
  <rect x="302" y="268" width="9" height="9" rx="2" class="cell" fill-opacity="0.40"/>
  <rect x="302" y="279" width="9" height="9" rx="2" class="cell" fill-opacity="0.62"/>
  <rect x="302" y="290" width="9" height="9" rx="2" class="cell" fill-opacity="0.62"/>
  <rect x="302" y="301" width="9" height="9" rx="2" class="cell" fill-opacity="0.62"/>
  <rect x="302" y="312" width="9" height="9" rx="2" class="cell" fill-opacity="0.62"/>
  <rect x="302" y="323" width="9" height="9" rx="2" class="cell" fill-opacity="0.82"/>
  <rect x="302" y="334" width="9" height="9" rx="2" class="cell" fill-opacity="0.82"/>
  <rect x="314" y="268" width="9" height="9" rx="2" class="cell" fill-opacity="0.82"/>
  <rect x="314" y="279" width="9" height="9" rx="2" class="cell" fill-opacity="1.00"/>
  <rect x="314" y="290" width="9" height="9" rx="2" class="cell" fill-opacity="0.82"/>
  <rect x="314" y="301" width="9" height="9" rx="2" class="cell" fill-opacity="0.82"/>
  <rect x="314" y="312" width="9" height="9" rx="2" class="cell" fill-opacity="0.82"/>
  <rect x="314" y="323" width="9" height="9" rx="2" class="cell" fill-opacity="0.62"/>
  <rect x="314" y="334" width="9" height="9" rx="2" class="cell" fill-opacity="0.62"/>
  <rect x="324" y="268" width="9" height="9" rx="2" class="cell" fill-opacity="0.82"/>
  <rect x="324" y="279" width="9" height="9" rx="2" class="cell" fill-opacity="1.00"/>
  <rect x="324" y="290" width="9" height="9" rx="2" class="cell" fill-opacity="0.62"/>
  <rect x="324" y="301" width="9" height="9" rx="2" class="cell" fill-opacity="0.40"/>
  <rect x="324" y="312" width="9" height="9" rx="2" class="cell" fill-opacity="0.82"/>
  <rect x="324" y="323" width="9" height="9" rx="2" class="cell" fill-opacity="0.62"/>
  <rect x="324" y="334" width="9" height="9" rx="2" class="cell" fill-opacity="0.40"/>
  <rect x="336" y="268" width="9" height="9" rx="2" class="cell" fill-opacity="0.62"/>
  <rect x="336" y="279" width="9" height="9" rx="2" class="cell" fill-opacity="0.82"/>
  <rect x="336" y="290" width="9" height="9" rx="2" class="cell" fill-opacity="0.62"/>
  <rect x="336" y="301" width="9" height="9" rx="2" class="cell" fill-opacity="0.40"/>
  <rect x="336" y="312" width="9" height="9" rx="2" class="cell" fill-opacity="0.40"/>
  <rect x="336" y="323" width="9" height="9" rx="2" class="cell" fill-opacity="1.00"/>
  <rect x="336" y="334" width="9" height="9" rx="2" class="cell" fill-opacity="0.62"/>
  <rect x="346" y="268" width="9" height="9" rx="2" class="cell" fill-opacity="0.82"/>
  <rect x="346" y="279" width="9" height="9" rx="2" class="cell" fill-opacity="0.62"/>
  <rect x="346" y="290" width="9" height="9" rx="2" class="cell" fill-opacity="1.00"/>
  <rect x="346" y="301" width="9" height="9" rx="2" class="cell" fill-opacity="1.00"/>
  <rect x="346" y="312" width="9" height="9" rx="2" class="cell" fill-opacity="1.00"/>
  <rect x="346" y="323" width="9" height="9" rx="2" class="cell" fill-opacity="0.82"/>
  <rect x="346" y="334" width="9" height="9" rx="2" class="cell" fill-opacity="1.00"/>
  <rect x="358" y="268" width="9" height="9" rx="2" class="cell" fill-opacity="0.40"/>
  <rect x="358" y="279" width="9" height="9" rx="2" class="cell" fill-opacity="0.40"/>
  <rect x="358" y="290" width="9" height="9" rx="2" class="cell" fill-opacity="1.00"/>
  <rect x="358" y="301" width="9" height="9" rx="2" class="cell" fill-opacity="1.00"/>
  <rect x="358" y="312" width="9" height="9" rx="2" class="cell" fill-opacity="0.82"/>
  <rect x="358" y="323" width="9" height="9" rx="2" class="cell" fill-opacity="1.00"/>
  <rect x="358" y="334" width="9" height="9" rx="2" class="cell" fill-opacity="0.82"/>
  <rect x="368" y="268" width="9" height="9" rx="2" class="cell" fill-opacity="0.40"/>
  <rect x="368" y="279" width="9" height="9" rx="2" class="cell" fill-opacity="0.62"/>
  <rect x="368" y="290" width="9" height="9" rx="2" class="cell" fill-opacity="0.82"/>
  <rect x="368" y="301" width="9" height="9" rx="2" class="cell" fill-opacity="1.00"/>
  <rect x="368" y="312" width="9" height="9" rx="2" class="cell" fill-opacity="0.82"/>
  <rect x="368" y="323" width="9" height="9" rx="2" class="cell" fill-opacity="0.40"/>
  <rect x="368" y="334" width="9" height="9" rx="2" class="cell" fill-opacity="0.82"/>
  <rect x="380" y="268" width="9" height="9" rx="2" class="cell" fill-opacity="0.40"/>
  <rect x="380" y="279" width="9" height="9" rx="2" class="cell" fill-opacity="0.40"/>
  <rect x="380" y="290" width="9" height="9" rx="2" class="cell" fill-opacity="0.62"/>
  <rect x="380" y="301" width="9" height="9" rx="2" class="cell" fill-opacity="0.40"/>
  <rect x="380" y="312" width="9" height="9" rx="2" class="cell" fill-opacity="0.09"/>
  <rect x="380" y="323" width="9" height="9" rx="2" class="cell" fill-opacity="0.09"/>
  <rect x="380" y="334" width="9" height="9" rx="2" class="cell" fill-opacity="0.40"/>
  <rect x="390" y="268" width="9" height="9" rx="2" class="cell" fill-opacity="0.40"/>
  <rect x="390" y="279" width="9" height="9" rx="2" class="cell" fill-opacity="0.40"/>
  <rect x="390" y="290" width="9" height="9" rx="2" class="cell" fill-opacity="0.62"/>
  <rect x="390" y="301" width="9" height="9" rx="2" class="cell" fill-opacity="0.09"/>
  <rect x="390" y="312" width="9" height="9" rx="2" class="cell" fill-opacity="0.40"/>
  <rect x="390" y="323" width="9" height="9" rx="2" class="cell" fill-opacity="0.62"/>
  <rect x="390" y="334" width="9" height="9" rx="2" class="cell" fill-opacity="0.40"/>
  <rect x="402" y="268" width="9" height="9" rx="2" class="cell" fill-opacity="0.40"/>
  <rect x="402" y="279" width="9" height="9" rx="2" class="cell" fill-opacity="0.40"/>
  <rect x="402" y="290" width="9" height="9" rx="2" class="cell" fill-opacity="0.40"/>
  <rect x="402" y="301" width="9" height="9" rx="2" class="cell" fill-opacity="0.82"/>
  <rect x="402" y="312" width="9" height="9" rx="2" class="cell" fill-opacity="0.40"/>
  <rect x="402" y="323" width="9" height="9" rx="2" class="cell" fill-opacity="0.09"/>
  <rect x="402" y="334" width="9" height="9" rx="2" class="cell" fill-opacity="0.40"/>
  <rect x="412" y="268" width="9" height="9" rx="2" class="cell" fill-opacity="0.09"/>
  <rect x="412" y="279" width="9" height="9" rx="2" class="cell" fill-opacity="0.40"/>
  <rect x="412" y="290" width="9" height="9" rx="2" class="cell" fill-opacity="0.40"/>
  <rect x="412" y="301" width="9" height="9" rx="2" class="cell" fill-opacity="0.40"/>
  <rect x="412" y="312" width="9" height="9" rx="2" class="cell" fill-opacity="0.40"/>
  <rect x="412" y="323" width="9" height="9" rx="2" class="cell" fill-opacity="0.09"/>
  <rect x="412" y="334" width="9" height="9" rx="2" class="cell" fill-opacity="0.09"/>
  <rect x="424" y="268" width="9" height="9" rx="2" class="cell" fill-opacity="0.09"/>
  <rect x="424" y="279" width="9" height="9" rx="2" class="cell" fill-opacity="0.09"/>
  <rect x="424" y="290" width="9" height="9" rx="2" class="cell" fill-opacity="0.09"/>
  <rect x="424" y="301" width="9" height="9" rx="2" class="cell" fill-opacity="0.62"/>
  <rect x="424" y="312" width="9" height="9" rx="2" class="cell" fill-opacity="0.40"/>
  <rect x="424" y="323" width="9" height="9" rx="2" class="cell" fill-opacity="1.00"/>
  <rect x="424" y="334" width="9" height="9" rx="2" class="cell" fill-opacity="0.09"/>
  <rect x="434" y="268" width="9" height="9" rx="2" class="cell" fill-opacity="0.09"/>
  <rect x="434" y="279" width="9" height="9" rx="2" class="cell" fill-opacity="0.40"/>
  <rect x="434" y="290" width="9" height="9" rx="2" class="cell" fill-opacity="0.09"/>
  <rect x="434" y="301" width="9" height="9" rx="2" class="cell" fill-opacity="0.09"/>
  <rect x="434" y="312" width="9" height="9" rx="2" class="cell" fill-opacity="0.40"/>
  <rect x="434" y="323" width="9" height="9" rx="2" class="cell" fill-opacity="0.09"/>
  <rect x="434" y="334" width="9" height="9" rx="2" class="cell" fill-opacity="0.09"/>
  <rect x="446" y="268" width="9" height="9" rx="2" class="cell" fill-opacity="1.00"/>
  <rect x="446" y="279" width="9" height="9" rx="2" class="cell" fill-opacity="0.82"/>
  <rect x="446" y="290" width="9" height="9" rx="2" class="cell" fill-opacity="1.00"/>
  <rect x="446" y="301" width="9" height="9" rx="2" class="cell" fill-opacity="0.40"/>
  <rect x="446" y="312" width="9" height="9" rx="2" class="cell" fill-opacity="0.40"/>
  <rect x="446" y="323" width="9" height="9" rx="2" class="cell" fill-opacity="0.62"/>
  <rect x="446" y="334" width="9" height="9" rx="2" class="cell" fill-opacity="0.62"/>
  <rect x="456" y="268" width="9" height="9" rx="2" class="cell" fill-opacity="0.82"/>
  <rect x="456" y="279" width="9" height="9" rx="2" class="cell" fill-opacity="1.00"/>
  <rect x="456" y="290" width="9" height="9" rx="2" class="cell" fill-opacity="0.40"/>
  <rect x="456" y="301" width="9" height="9" rx="2" class="cell" fill-opacity="1.00"/>
  <rect x="456" y="312" width="9" height="9" rx="2" class="cell" fill-opacity="0.40"/>
  <rect x="456" y="323" width="9" height="9" rx="2" class="cell" fill-opacity="1.00"/>
  <rect x="456" y="334" width="9" height="9" rx="2" class="cell" fill-opacity="0.09"/>
  <rect x="468" y="268" width="9" height="9" rx="2" class="cell" fill-opacity="0.82"/>
  <rect x="468" y="279" width="9" height="9" rx="2" class="cell" fill-opacity="0.82"/>
  <rect x="468" y="290" width="9" height="9" rx="2" class="cell" fill-opacity="1.00"/>
  <rect x="468" y="301" width="9" height="9" rx="2" class="cell" fill-opacity="0.62"/>
  <rect x="468" y="312" width="9" height="9" rx="2" class="cell" fill-opacity="0.09"/>
  <rect x="468" y="323" width="9" height="9" rx="2" class="cell" fill-opacity="0.62"/>
  <rect x="468" y="334" width="9" height="9" rx="2" class="cell" fill-opacity="0.40"/>
  <rect x="478" y="268" width="9" height="9" rx="2" class="cell" fill-opacity="0.40"/>
  <rect x="478" y="279" width="9" height="9" rx="2" class="cell" fill-opacity="0.82"/>
  <rect x="478" y="290" width="9" height="9" rx="2" class="cell" fill-opacity="0.82"/>
  <rect x="478" y="301" width="9" height="9" rx="2" class="cell" fill-opacity="0.82"/>
  <rect x="478" y="312" width="9" height="9" rx="2" class="cell" fill-opacity="1.00"/>
  <rect x="478" y="323" width="9" height="9" rx="2" class="cell" fill-opacity="1.00"/>
  <rect x="478" y="334" width="9" height="9" rx="2" class="cell" fill-opacity="1.00"/>
  <rect x="490" y="268" width="9" height="9" rx="2" class="cell" fill-opacity="1.00"/>
  <rect x="490" y="279" width="9" height="9" rx="2" class="cell" fill-opacity="1.00"/>
  <rect x="490" y="290" width="9" height="9" rx="2" class="cell" fill-opacity="1.00"/>
  <rect x="490" y="301" width="9" height="9" rx="2" class="cell" fill-opacity="1.00"/>
  <rect x="490" y="312" width="9" height="9" rx="2" class="cell" fill-opacity="0.62"/>
  <rect x="490" y="323" width="9" height="9" rx="2" class="cell" fill-opacity="1.00"/>
  <rect x="490" y="334" width="9" height="9" rx="2" class="cell" fill-opacity="1.00"/>
  <rect x="500" y="268" width="9" height="9" rx="2" class="cell" fill-opacity="1.00"/>
  <rect x="500" y="279" width="9" height="9" rx="2" class="cell" fill-opacity="1.00"/>
  <rect x="500" y="290" width="9" height="9" rx="2" class="cell" fill-opacity="1.00"/>
  <rect x="500" y="301" width="9" height="9" rx="2" class="cell" fill-opacity="1.00"/>
  <rect x="500" y="312" width="9" height="9" rx="2" class="cell" fill-opacity="1.00"/>
  <rect x="500" y="323" width="9" height="9" rx="2" class="cell" fill-opacity="1.00"/>
  <rect x="500" y="334" width="9" height="9" rx="2" class="cell" fill-opacity="1.00"/>
  <rect x="512" y="268" width="9" height="9" rx="2" class="cell" fill-opacity="1.00"/>
  <rect x="512" y="279" width="9" height="9" rx="2" class="cell" fill-opacity="1.00"/>
  <rect x="512" y="290" width="9" height="9" rx="2" class="cell" fill-opacity="0.82"/>
  <rect x="512" y="301" width="9" height="9" rx="2" class="cell" fill-opacity="0.62"/>
  <rect x="512" y="312" width="9" height="9" rx="2" class="cell" fill-opacity="0.62"/>
  <rect x="512" y="323" width="9" height="9" rx="2" class="cell" fill-opacity="1.00"/>
  <rect x="512" y="334" width="9" height="9" rx="2" class="cell" fill-opacity="1.00"/>
  <rect x="522" y="268" width="9" height="9" rx="2" class="cell" fill-opacity="1.00"/>
  <rect x="522" y="279" width="9" height="9" rx="2" class="cell" fill-opacity="1.00"/>
  <rect x="522" y="290" width="9" height="9" rx="2" class="cell" fill-opacity="0.82"/>
  <rect x="522" y="301" width="9" height="9" rx="2" class="cell" fill-opacity="1.00"/>
  <rect x="522" y="312" width="9" height="9" rx="2" class="cell" fill-opacity="1.00"/>
  <rect x="522" y="323" width="9" height="9" rx="2" class="cell" fill-opacity="0.82"/>
  <rect x="522" y="334" width="9" height="9" rx="2" class="cell" fill-opacity="1.00"/>
  <rect x="534" y="268" width="9" height="9" rx="2" class="cell" fill-opacity="1.00"/>
  <rect x="534" y="279" width="9" height="9" rx="2" class="cell" fill-opacity="1.00"/>
  <rect x="534" y="290" width="9" height="9" rx="2" class="cell" fill-opacity="0.62"/>
  <rect x="534" y="301" width="9" height="9" rx="2" class="cell" fill-opacity="0.40"/>
  <rect x="534" y="312" width="9" height="9" rx="2" class="cell" fill-opacity="0.62"/>
  <rect x="534" y="323" width="9" height="9" rx="2" class="cell" fill-opacity="0.40"/>
  <rect x="534" y="334" width="9" height="9" rx="2" class="cell" fill-opacity="1.00"/>
  <rect x="544" y="268" width="9" height="9" rx="2" class="cell" fill-opacity="0.82"/>
  <rect x="544" y="279" width="9" height="9" rx="2" class="cell" fill-opacity="0.82"/>
  <rect x="544" y="290" width="9" height="9" rx="2" class="cell" fill-opacity="0.82"/>
  <rect x="544" y="301" width="9" height="9" rx="2" class="cell" fill-opacity="0.82"/>
  <rect x="544" y="312" width="9" height="9" rx="2" class="cell" fill-opacity="1.00"/>
  <rect x="544" y="323" width="9" height="9" rx="2" class="cell" fill-opacity="0.62"/>
  <rect x="544" y="334" width="9" height="9" rx="2" class="cell" fill-opacity="0.40"/>
  <rect x="556" y="268" width="9" height="9" rx="2" class="cell" fill-opacity="0.40"/>
  <rect x="556" y="279" width="9" height="9" rx="2" class="cell" fill-opacity="0.40"/>
  <rect x="556" y="290" width="9" height="9" rx="2" class="cell" fill-opacity="0.62"/>
  <rect x="556" y="301" width="9" height="9" rx="2" class="cell" fill-opacity="0.82"/>
  <rect x="556" y="312" width="9" height="9" rx="2" class="cell" fill-opacity="1.00"/>
  <rect x="556" y="323" width="9" height="9" rx="2" class="cell" fill-opacity="0.40"/>
  <rect x="556" y="334" width="9" height="9" rx="2" class="cell" fill-opacity="0.82"/>
  <rect x="566" y="268" width="9" height="9" rx="2" class="cell" fill-opacity="1.00"/>
  <rect x="566" y="279" width="9" height="9" rx="2" class="cell" fill-opacity="1.00"/>
  <rect x="566" y="290" width="9" height="9" rx="2" class="cell" fill-opacity="1.00"/>
  <rect x="566" y="301" width="9" height="9" rx="2" class="cell" fill-opacity="0.62"/>
  <rect x="566" y="312" width="9" height="9" rx="2" class="cell" fill-opacity="1.00"/>
  <rect x="566" y="323" width="9" height="9" rx="2" class="cell" fill-opacity="0.62"/>
  <rect x="566" y="334" width="9" height="9" rx="2" class="cell" fill-opacity="0.82"/>
  <rect x="578" y="268" width="9" height="9" rx="2" class="cell" fill-opacity="0.82"/>
  <rect x="578" y="279" width="9" height="9" rx="2" class="cell" fill-opacity="0.62"/>
  <rect x="578" y="290" width="9" height="9" rx="2" class="cell" fill-opacity="0.62"/>
  <rect x="578" y="301" width="9" height="9" rx="2" class="cell" fill-opacity="0.40"/>
  <rect x="578" y="312" width="9" height="9" rx="2" class="cell" fill-opacity="0.40"/>
  <rect x="578" y="323" width="9" height="9" rx="2" class="cell" fill-opacity="0.82"/>
  <rect x="578" y="334" width="9" height="9" rx="2" class="cell" fill-opacity="0.40"/>
  <rect x="588" y="268" width="9" height="9" rx="2" class="cell" fill-opacity="0.40"/>
  <rect x="588" y="279" width="9" height="9" rx="2" class="cell" fill-opacity="1.00"/>
  <rect x="588" y="290" width="9" height="9" rx="2" class="cell" fill-opacity="1.00"/>
  <rect x="588" y="301" width="9" height="9" rx="2" class="cell" fill-opacity="1.00"/>
  <rect x="588" y="312" width="9" height="9" rx="2" class="cell" fill-opacity="0.40"/>
  <rect x="588" y="323" width="9" height="9" rx="2" class="cell" fill-opacity="0.82"/>
  <rect x="588" y="334" width="9" height="9" rx="2" class="cell" fill-opacity="1.00"/>
  <rect x="600" y="268" width="9" height="9" rx="2" class="cell" fill-opacity="0.62"/>
  <rect x="600" y="279" width="9" height="9" rx="2" class="cell" fill-opacity="0.62"/>
  <rect x="600" y="290" width="9" height="9" rx="2" class="cell" fill-opacity="0.82"/>
  <rect x="600" y="301" width="9" height="9" rx="2" class="cell" fill-opacity="1.00"/>
  <rect x="600" y="312" width="9" height="9" rx="2" class="cell" fill-opacity="0.82"/>
  <rect x="600" y="323" width="9" height="9" rx="2" class="cell" fill-opacity="0.62"/>
  <rect x="600" y="334" width="9" height="9" rx="2" class="cell" fill-opacity="0.82"/>
  <rect x="610" y="268" width="9" height="9" rx="2" class="cell" fill-opacity="0.40"/>
  <rect x="610" y="279" width="9" height="9" rx="2" class="cell" fill-opacity="0.40"/>
  <rect x="610" y="290" width="9" height="9" rx="2" class="cell" fill-opacity="0.82"/>
  <rect x="610" y="301" width="9" height="9" rx="2" class="cell" fill-opacity="0.40"/>
  <rect x="610" y="312" width="9" height="9" rx="2" class="cell" fill-opacity="0.40"/>
  <rect x="610" y="323" width="9" height="9" rx="2" class="cell" fill-opacity="0.62"/>
  <rect x="610" y="334" width="9" height="9" rx="2" class="cell" fill-opacity="1.00"/>
  <rect x="622" y="268" width="9" height="9" rx="2" class="cell" fill-opacity="0.62"/>
  <rect x="622" y="279" width="9" height="9" rx="2" class="cell" fill-opacity="0.62"/>
  <rect x="622" y="290" width="9" height="9" rx="2" class="cell" fill-opacity="1.00"/>
  <rect x="622" y="301" width="9" height="9" rx="2" class="cell" fill-opacity="0.62"/>
  <rect x="622" y="312" width="9" height="9" rx="2" class="cell" fill-opacity="0.40"/>
  <rect x="622" y="323" width="9" height="9" rx="2" class="cell" fill-opacity="0.82"/>
  <rect x="622" y="334" width="9" height="9" rx="2" class="cell" fill-opacity="0.40"/>
  <rect x="632" y="268" width="9" height="9" rx="2" class="cell" fill-opacity="0.62"/>
  <rect x="632" y="279" width="9" height="9" rx="2" class="cell" fill-opacity="0.40"/>
  <rect x="632" y="290" width="9" height="9" rx="2" class="cell" fill-opacity="0.82"/>
  <rect x="632" y="301" width="9" height="9" rx="2" class="cell" fill-opacity="1.00"/>
  <rect x="632" y="312" width="9" height="9" rx="2" class="cell" fill-opacity="0.62"/>
  <rect x="632" y="323" width="9" height="9" rx="2" class="cell" fill-opacity="0.40"/>
  <rect x="632" y="334" width="9" height="9" rx="2" class="cell" fill-opacity="0.40"/>
  <rect x="644" y="268" width="9" height="9" rx="2" class="cell" fill-opacity="1.00"/>
  <rect x="644" y="279" width="9" height="9" rx="2" class="cell" fill-opacity="0.62"/>
  <rect x="644" y="290" width="9" height="9" rx="2" class="cell" fill-opacity="0.82"/>
  <rect x="644" y="301" width="9" height="9" rx="2" class="cell" fill-opacity="0.62"/>
  <rect x="644" y="312" width="9" height="9" rx="2" class="cell" fill-opacity="0.62"/>
  <rect x="644" y="323" width="9" height="9" rx="2" class="cell" fill-opacity="1.00"/>
  <rect x="644" y="334" width="9" height="9" rx="2" class="cell" fill-opacity="0.40"/>
  <rect x="654" y="268" width="9" height="9" rx="2" class="cell" fill-opacity="0.82"/>
  <rect x="654" y="279" width="9" height="9" rx="2" class="cell" fill-opacity="1.00"/>
  <rect x="654" y="290" width="9" height="9" rx="2" class="cell" fill-opacity="1.00"/>
  <rect x="654" y="301" width="9" height="9" rx="2" class="cell" fill-opacity="0.62"/>
  <rect x="654" y="312" width="9" height="9" rx="2" class="cell" fill-opacity="0.40"/>
  <rect x="654" y="323" width="9" height="9" rx="2" class="cell" fill-opacity="0.82"/>
  <rect x="654" y="334" width="9" height="9" rx="2" class="cell" fill-opacity="1.00"/>
  <rect x="666" y="268" width="9" height="9" rx="2" class="cell" fill-opacity="0.40"/>
  <rect x="666" y="279" width="9" height="9" rx="2" class="cell" fill-opacity="0.40"/>
  <rect x="666" y="290" width="9" height="9" rx="2" class="cell" fill-opacity="1.00"/>
  <rect x="666" y="301" width="9" height="9" rx="2" class="cell" fill-opacity="0.62"/>
  <rect x="666" y="312" width="9" height="9" rx="2" class="cell" fill-opacity="0.40"/>
  <rect x="666" y="323" width="9" height="9" rx="2" class="cell" fill-opacity="0.62"/>
  <rect x="666" y="334" width="9" height="9" rx="2" class="cell" fill-opacity="0.62"/>
  <rect x="676" y="268" width="9" height="9" rx="2" class="cell" fill-opacity="1.00"/>
  <rect x="676" y="279" width="9" height="9" rx="2" class="cell" fill-opacity="1.00"/>
  <rect x="676" y="290" width="9" height="9" rx="2" class="cell" fill-opacity="1.00"/>
  <rect x="676" y="301" width="9" height="9" rx="2" class="cell" fill-opacity="0.82"/>
  <rect x="676" y="312" width="9" height="9" rx="2" class="cell" fill-opacity="1.00"/>
  <rect x="676" y="323" width="9" height="9" rx="2" class="cell" fill-opacity="1.00"/>
  <rect x="676" y="334" width="9" height="9" rx="2" class="cell" fill-opacity="1.00"/>
  <rect x="688" y="268" width="9" height="9" rx="2" class="cell" fill-opacity="0.62"/>
  <rect x="688" y="279" width="9" height="9" rx="2" class="cell" fill-opacity="0.62"/>
  <rect x="688" y="290" width="9" height="9" rx="2" class="cell" fill-opacity="0.40"/>
  <rect x="688" y="301" width="9" height="9" rx="2" class="cell" fill-opacity="0.62"/>
  <rect x="688" y="312" width="9" height="9" rx="2" class="cell" fill-opacity="1.00"/>
  <rect x="688" y="323" width="9" height="9" rx="2" class="cell" fill-opacity="0.40"/>
  <rect x="688" y="334" width="9" height="9" rx="2" class="cell" fill-opacity="0.62"/>
  <rect x="698" y="268" width="9" height="9" rx="2" class="cell" fill-opacity="0.40"/>
  <rect x="698" y="279" width="9" height="9" rx="2" class="cell" fill-opacity="0.62"/>
  <rect x="698" y="290" width="9" height="9" rx="2" class="cell" fill-opacity="0.82"/>
  <rect x="698" y="301" width="9" height="9" rx="2" class="cell" fill-opacity="1.00"/>
  <rect x="698" y="312" width="9" height="9" rx="2" class="cell" fill-opacity="1.00"/>
  <rect x="698" y="323" width="9" height="9" rx="2" class="cell" fill-opacity="1.00"/>
  <rect x="698" y="334" width="9" height="9" rx="2" class="cell" fill-opacity="0.62"/>
  <rect x="710" y="268" width="9" height="9" rx="2" class="cell" fill-opacity="1.00"/>
  <rect x="710" y="279" width="9" height="9" rx="2" class="cell" fill-opacity="1.00"/>
  <rect x="710" y="290" width="9" height="9" rx="2" class="cell" fill-opacity="1.00"/>
  <rect x="710" y="301" width="9" height="9" rx="2" class="cell" fill-opacity="0.62"/>
  <rect x="710" y="312" width="9" height="9" rx="2" class="cell" fill-opacity="0.62"/>
  <rect x="710" y="323" width="9" height="9" rx="2" class="cell" fill-opacity="0.82"/>
  <rect x="710" y="334" width="9" height="9" rx="2" class="cell" fill-opacity="0.40"/>
  <rect x="720" y="268" width="9" height="9" rx="2" class="cell" fill-opacity="1.00"/>
  <rect x="720" y="279" width="9" height="9" rx="2" class="cell" fill-opacity="1.00"/>
  <rect x="720" y="290" width="9" height="9" rx="2" class="cell" fill-opacity="1.00"/>
  <rect x="720" y="301" width="9" height="9" rx="2" class="cell" fill-opacity="0.82"/>
  <rect x="720" y="312" width="9" height="9" rx="2" class="cell" fill-opacity="0.40"/>
  <rect x="720" y="323" width="9" height="9" rx="2" class="cell" fill-opacity="0.82"/>
  <rect x="720" y="334" width="9" height="9" rx="2" class="cell" fill-opacity="1.00"/>
  <rect x="732" y="268" width="9" height="9" rx="2" class="cell" fill-opacity="1.00"/>
  <rect x="732" y="279" width="9" height="9" rx="2" class="cell" fill-opacity="1.00"/>
  </g>
</svg>