<svg xmlns="http://www.w3.org/2000/svg" width="900" height="372" viewBox="0 0 900 372" role="img" aria-label="David Rose, AI Systems Engineer">
  <defs>
    <style>
      .bg { fill: #0d1117; }
      .frame { stroke: #30363d; fill: none; }
      .name { font: 700 34px 'Segoe UI', -apple-system, system-ui, sans-serif; fill: #e6edf3; }
      .role { font: 600 17px 'Segoe UI', -apple-system, system-ui, sans-serif; fill: #58a6ff; letter-spacing: 0.3px; }
      .tagline { font: 400 15px 'Segoe UI', -apple-system, system-ui, sans-serif; fill: #8b949e; }
      .handle { font: 500 13px 'SF Mono', ui-monospace, 'Consolas', monospace; fill: #6e7681; }
      .chip-bg { fill: #161b22; stroke: #30363d; stroke-width: 1; }
      .chip-dot { fill: #58a6ff; }
      .chip-text { font: 500 13px 'Segoe UI', -apple-system, system-ui, sans-serif; fill: #c9d1d9; }
      .stat-num { font: 700 22px 'SF Mono', ui-monospace, 'Consolas', monospace; fill: #e6edf3; }
      .stat-label { font: 400 12px 'Segoe UI', -apple-system, system-ui, sans-serif; fill: #8b949e; }
      .cell { fill: #58a6ff; }
      .cal-label { font: 400 9px 'Segoe UI', -apple-system, system-ui, sans-serif; fill: #6e7681; }
      .divider { stroke: #21262d; stroke-width: 1; }

      @media (prefers-color-scheme: light) {
        .bg { fill: #ffffff; }
        .frame { stroke: #d0d7de; }
        .name { fill: #1f2328; }
        .role { fill: #0969da; }
        .tagline { fill: #636c76; }
        .handle { fill: #818b98; }
        .chip-bg { fill: #f6f8fa; stroke: #d0d7de; }
        .chip-dot { fill: #0969da; }
        .chip-text { fill: #1f2328; }
        .stat-num { fill: #1f2328; }
        .stat-label { fill: #636c76; }
        .cell { fill: #0969da; }
        .cal-label { fill: #818b98; }
        .divider { stroke: #eaeef2; }
      }

      @keyframes fade-in { from { opacity: 0; } to { opacity: 1; } }
      .grid { animation: fade-in 1.2s ease-out forwards; }
    </style>
  </defs>

  <rect width="900" height="372" class="bg" rx="12"/>
  <rect x="1" y="1" width="898" height="370" class="frame" stroke-width="1" rx="12"/>

  <!-- Identity -->
  <text x="36" y="62" class="name">David Rose</text>
  <text x="864" y="40" class="handle" text-anchor="end">@cipher982</text>
  <text x="36" y="90" class="role">AI Systems Engineer</text>
  <text x="36" y="120" class="tagline">I build autonomous agents, LLM tooling, and ship real products.</text>

  <!-- Flagship chips -->
  
    <g transform="translate(36, 150)">
      <rect width="96" height="30" rx="15" class="chip-bg"/>
      <circle cx="16" cy="15" r="3" class="chip-dot"/>
      <text x="28" y="20" class="chip-text">Longhouse</text>
    </g>
    <g transform="translate(144, 150)">
      <rect width="145" height="30" rx="15" class="chip-bg"/>
      <circle cx="16" cy="15" r="3" class="chip-dot"/>
      <text x="28" y="20" class="chip-text">Stop Sign Nanny</text>
    </g>
    <g transform="translate(301, 150)">
      <rect width="137" height="30" rx="15" class="chip-bg"/>
      <circle cx="16" cy="15" r="3" class="chip-dot"/>
      <text x="28" y="20" class="chip-text">LLM Benchmarks</text>
    </g>

  <line x1="36" y1="198" x2="864" y2="198" class="divider"/>

  <!-- Shipping metrics -->
  <g transform="translate(36, 224)">
    <text x="0" y="0" class="stat-num">1,209</text>
    <text x="0" y="18" class="stat-label">commits · 30d</text>

    <text x="150" y="0" class="stat-num">25</text>
    <text x="150" y="18" class="stat-label">active repos</text>
  </g>
  <text x="864" y="224" class="stat-label" text-anchor="end">commit activity · past year</text>

  <!-- Full-year contribution calendar -->
  <g class="grid">
  <text x="174" y="272" class="cal-label">Jun</text>
  <text x="196" y="272" class="cal-label">Jul</text>
  <text x="240" y="272" class="cal-label">Aug</text>
  <text x="296" y="272" class="cal-label">Sep</text>
  <text x="340" y="272" class="cal-label">Oct</text>
  <text x="384" y="272" class="cal-label">Nov</text>
  <text x="438" y="272" class="cal-label">Dec</text>
  <text x="482" y="272" class="cal-label">Jan</text>
  <text x="526" y="272" class="cal-label">Feb</text>
  <text x="570" y="272" class="cal-label">Mar</text>
  <text x="626" y="272" class="cal-label">Apr</text>
  <text x="670" y="272" class="cal-label">May</text>
  <text x="724" y="272" class="cal-label">Jun</text>
  <text x="166" y="297" class="cal-label" text-anchor="end">Mon</text>
  <text x="166" y="319" class="cal-label" text-anchor="end">Wed</text>
  <text x="166" y="341" class="cal-label" text-anchor="end">Fri</text>
  <rect x="174" y="278" width="9" height="9" rx="2" class="cell" fill-opacity="1.00"/>
  <rect x="174" y="289" width="9" height="9" rx="2" class="cell" fill-opacity="0.82"/>
  <rect x="174" y="300" width="9" height="9" rx="2" class="cell" fill-opacity="0.82"/>
  <rect x="174" y="311" width="9" height="9" rx="2" class="cell" fill-opacity="1.00"/>
  <rect x="174" y="322" width="9" height="9" rx="2" class="cell" fill-opacity="1.00"/>
  <rect x="174" y="333" width="9" height="9" rx="2" class="cell" fill-opacity="0.82"/>
  <rect x="174" y="344" width="9" height="9" rx="2" class="cell" fill-opacity="0.40"/>
  <rect x="186" y="278" width="9" height="9" rx="2" class="cell" fill-opacity="0.62"/>
  <rect x="186" y="289" width="9" height="9" rx="2" class="cell" fill-opacity="0.82"/>
  <rect x="186" y="300" width="9" height="9" rx="2" class="cell" fill-opacity="1.00"/>
  <rect x="186" y="311" width="9" height="9" rx="2" class="cell" fill-opacity="1.00"/>
  <rect x="186" y="322" width="9" height="9" rx="2" class="cell" fill-opacity="1.00"/>
  <rect x="186" y="333" width="9" height="9" rx="2" class="cell" fill-opacity="0.82"/>
  <rect x="186" y="344" width="9" height="9" rx="2" class="cell" fill-opacity="0.09"/>
  <rect x="196" y="278" width="9" height="9" rx="2" class="cell" fill-opacity="0.40"/>
  <rect x="196" y="289" width="9" height="9" rx="2" class="cell" fill-opacity="0.62"/>
  <rect x="196" y="300" width="9" height="9" rx="2" class="cell" fill-opacity="1.00"/>
  <rect x="196" y="311" width="9" height="9" rx="2" class="cell" fill-opacity="1.00"/>
  <rect x="196" y="322" width="9" height="9" rx="2" class="cell" fill-opacity="1.00"/>
  <rect x="196" y="333" width="9" height="9" rx="2" class="cell" fill-opacity="1.00"/>
  <rect x="196" y="344" width="9" height="9" rx="2" class="cell" fill-opacity="1.00"/>
  <rect x="208" y="278" width="9" height="9" rx="2" class="cell" fill-opacity="1.00"/>
  <rect x="208" y="289" width="9" height="9" rx="2" class="cell" fill-opacity="0.82"/>
  <rect x="208" y="300" width="9" height="9" rx="2" class="cell" fill-opacity="1.00"/>
  <rect x="208" y="311" width="9" height="9" rx="2" class="cell" fill-opacity="0.82"/>
  <rect x="208" y="322" width="9" height="9" rx="2" class="cell" fill-opacity="1.00"/>
  <rect x="208" y="333" width="9" height="9" rx="2" class="cell" fill-opacity="1.00"/>
  <rect x="208" y="344" width="9" height="9" rx="2" class="cell" fill-opacity="0.82"/>
  <rect x="218" y="278" width="9" height="9" rx="2" class="cell" fill-opacity="0.09"/>
  <rect x="218" y="289" width="9" height="9" rx="2" class="cell" fill-opacity="0.62"/>
  <rect x="218" y="300" width="9" height="9" rx="2" class="cell" fill-opacity="0.82"/>
  <rect x="218" y="311" width="9" height="9" rx="2" class="cell" fill-opacity="0.82"/>
  <rect x="218" y="322" width="9" height="9" rx="2" class="cell" fill-opacity="1.00"/>
  <rect x="218" y="333" width="9" height="9" rx="2" class="cell" fill-opacity="0.82"/>
  <rect x="218" y="344" width="9" height="9" rx="2" class="cell" fill-opacity="0.82"/>
  <rect x="230" y="278" width="9" height="9" rx="2" class="cell" fill-opacity="1.00"/>
  <rect x="230" y="289" width="9" height="9" rx="2" class="cell" fill-opacity="0.40"/>
  <rect x="230" y="300" width="9" height="9" rx="2" class="cell" fill-opacity="0.09"/>
  <rect x="230" y="311" width="9" height="9" rx="2" class="cell" fill-opacity="1.00"/>
  <rect x="230" y="322" width="9" height="9" rx="2" class="cell" fill-opacity="0.82"/>
  <rect x="230" y="333" width="9" height="9" rx="2" class="cell" fill-opacity="0.40"/>
  <rect x="230" y="344" width="9" height="9" rx="2" class="cell" fill-opacity="1.00"/>
  <rect x="240" y="278" width="9" height="9" rx="2" class="cell" fill-opacity="0.82"/>
  <rect x="240" y="289" width="9" height="9" rx="2" class="cell" fill-opacity="0.82"/>
  <rect x="240" y="300" width="9" height="9" rx="2" class="cell" fill-opacity="0.40"/>
  <rect x="240" y="311" width="9" height="9" rx="2" class="cell" fill-opacity="0.40"/>
  <rect x="240" y="322" width="9" height="9" rx="2" class="cell" fill-opacity="0.62"/>
  <rect x="240" y="333" width="9" height="9" rx="2" class="cell" fill-opacity="0.40"/>
  <rect x="240" y="344" width="9" height="9" rx="2" class="cell" fill-opacity="0.09"/>
  <rect x="252" y="278" width="9" height="9" rx="2" class="cell" fill-opacity="0.82"/>
  <rect x="252" y="289" width="9" height="9" rx="2" class="cell" fill-opacity="1.00"/>
  <rect x="252" y="300" width="9" height="9" rx="2" class="cell" fill-opacity="1.00"/>
  <rect x="252" y="311" width="9" height="9" rx="2" class="cell" fill-opacity="0.82"/>
  <rect x="252" y="322" width="9" height="9" rx="2" class="cell" fill-opacity="0.62"/>
  <rect x="252" y="333" width="9" height="9" rx="2" class="cell" fill-opacity="1.00"/>
  <rect x="252" y="344" width="9" height="9" rx="2" class="cell" fill-opacity="1.00"/>
  <rect x="262" y="278" width="9" height="9" rx="2" class="cell" fill-opacity="0.82"/>
  <rect x="262" y="289" width="9" height="9" rx="2" class="cell" fill-opacity="0.09"/>
  <rect x="262" y="300" width="9" height="9" rx="2" class="cell" fill-opacity="0.40"/>
  <rect x="262" y="311" width="9" height="9" rx="2" class="cell" fill-opacity="0.09"/>
  <rect x="262" y="322" width="9" height="9" rx="2" class="cell" fill-opacity="1.00"/>
  <rect x="262" y="333" width="9" height="9" rx="2" class="cell" fill-opacity="0.09"/>
  <rect x="262" y="344" width="9" height="9" rx="2" class="cell" fill-opacity="0.09"/>
  <rect x="274" y="278" width="9" height="9" rx="2" class="cell" fill-opacity="0.09"/>
  <rect x="274" y="289" width="9" height="9" rx="2" class="cell" fill-opacity="1.00"/>
  <rect x="274" y="300" width="9" height="9" rx="2" class="cell" fill-opacity="0.82"/>
  <rect x="274" y="311" width="9" height="9" rx="2" class="cell" fill-opacity="1.00"/>
  <rect x="274" y="322" width="9" height="9" rx="2" class="cell" fill-opacity="1.00"/>
  <rect x="274" y="333" width="9" height="9" rx="2" class="cell" fill-opacity="0.62"/>
  <rect x="274" y="344" width="9" height="9" rx="2" class="cell" fill-opacity="0.09"/>
  <rect x="284" y="278" width="9" height="9" rx="2" class="cell" fill-opacity="0.62"/>
  <rect x="284" y="289" width="9" height="9" rx="2" class="cell" fill-opacity="1.00"/>
  <rect x="284" y="300" width="9" height="9" rx="2" class="cell" fill-opacity="0.82"/>
  <rect x="284" y="311" width="9" height="9" rx="2" class="cell" fill-opacity="1.00"/>
  <rect x="284" y="322" width="9" height="9" rx="2" class="cell" fill-opacity="0.82"/>
  <rect x="284" y="333" width="9" height="9" rx="2" class="cell" fill-opacity="0.82"/>
  <rect x="284" y="344" width="9" height="9" rx="2" class="cell" fill-opacity="0.62"/>
  <rect x="296" y="278" width="9" height="9" rx="2" class="cell" fill-opacity="1.00"/>
  <rect x="296" y="289" width="9" height="9" rx="2" class="cell" fill-opacity="1.00"/>
  <rect x="296" y="300" width="9" height="9" rx="2" class="cell" fill-opacity="0.82"/>
  <rect x="296" y="311" width="9" height="9" rx="2" class="cell" fill-opacity="0.82"/>
  <rect x="296" y="322" width="9" height="9" rx="2" class="cell" fill-opacity="0.82"/>
  <rect x="296" y="333" width="9" height="9" rx="2" class="cell" fill-opacity="0.62"/>
  <rect x="296" y="344" width="9" height="9" rx="2" class="cell" fill-opacity="0.82"/>
  <rect x="306" y="278" width="9" height="9" rx="2" class="cell" fill-opacity="1.00"/>
  <rect x="306" y="289" width="9" height="9" rx="2" class="cell" fill-opacity="1.00"/>
  <rect x="306" y="300" width="9" height="9" rx="2" class="cell" fill-opacity="0.82"/>
  <rect x="306" y="311" width="9" height="9" rx="2" class="cell" fill-opacity="0.62"/>
  <rect x="306" y="322" width="9" height="9" rx="2" class="cell" fill-opacity="1.00"/>
  <rect x="306" y="333" width="9" height="9" rx="2" class="cell" fill-opacity="0.40"/>
  <rect x="306" y="344" width="9" height="9" rx="2" class="cell" fill-opacity="0.09"/>
  <rect x="318" y="278" width="9" height="9" rx="2" class="cell" fill-opacity="0.40"/>
  <rect x="318" y="289" width="9" height="9" rx="2" class="cell" fill-opacity="0.82"/>
  <rect x="318" y="300" width="9" height="9" rx="2" class="cell" fill-opacity="0.82"/>
  <rect x="318" y="311" width="9" height="9" rx="2" class="cell" fill-opacity="0.40"/>
  <rect x="318" y="322" width="9" height="9" rx="2" class="cell" fill-opacity="0.82"/>
  <rect x="318" y="333" width="9" height="9" rx="2" class="cell" fill-opacity="1.00"/>
  <rect x="318" y="344" width="9" height="9" rx="2" class="cell" fill-opacity="1.00"/>
  <rect x="328" y="278" width="9" height="9" rx="2" class="cell" fill-opacity="0.82"/>
  <rect x="328" y="289" width="9" height="9" rx="2" class="cell" fill-opacity="1.00"/>
  <rect x="328" y="300" width="9" height="9" rx="2" class="cell" fill-opacity="1.00"/>
  <rect x="328" y="311" width="9" height="9" rx="2" class="cell" fill-opacity="1.00"/>
  <rect x="328" y="322" width="9" height="9" rx="2" class="cell" fill-opacity="1.00"/>
  <rect x="328" y="333" width="9" height="9" rx="2" class="cell" fill-opacity="0.82"/>
  <rect x="328" y="344" width="9" height="9" rx="2" class="cell" fill-opacity="1.00"/>
  <rect x="340" y="278" width="9" height="9" rx="2" class="cell" fill-opacity="0.40"/>
  <rect x="340" y="289" width="9" height="9" rx="2" class="cell" fill-opacity="1.00"/>
  <rect x="340" y="300" width="9" height="9" rx="2" class="cell" fill-opacity="1.00"/>
  <rect x="340" y="311" width="9" height="9" rx="2" class="cell" fill-opacity="1.00"/>
  <rect x="340" y="322" width="9" height="9" rx="2" class="cell" fill-opacity="1.00"/>
  <rect x="340" y="333" width="9" height="9" rx="2" class="cell" fill-opacity="1.00"/>
  <rect x="340" y="344" width="9" height="9" rx="2" class="cell" fill-opacity="1.00"/>
  <rect x="350" y="278" width="9" height="9" rx="2" class="cell" fill-opacity="0.82"/>
  <rect x="350" y="289" width="9" height="9" rx="2" class="cell" fill-opacity="0.82"/>
  <rect x="350" y="300" width="9" height="9" rx="2" class="cell" fill-opacity="1.00"/>
  <rect x="350" y="311" width="9" height="9" rx="2" class="cell" fill-opacity="1.00"/>
  <rect x="350" y="322" width="9" height="9" rx="2" class="cell" fill-opacity="1.00"/>
  <rect x="350" y="333" width="9" height="9" rx="2" class="cell" fill-opacity="0.62"/>
  <rect x="350" y="344" width="9" height="9" rx="2" class="cell" fill-opacity="1.00"/>
  <rect x="362" y="278" width="9" height="9" rx="2" class="cell" fill-opacity="0.09"/>
  <rect x="362" y="289" width="9" height="9" rx="2" class="cell" fill-opacity="1.00"/>
  <rect x="362" y="300" width="9" height="9" rx="2" class="cell" fill-opacity="0.82"/>
  <rect x="362" y="311" width="9" height="9" rx="2" class="cell" fill-opacity="0.62"/>
  <rect x="362" y="322" width="9" height="9" rx="2" class="cell" fill-opacity="0.82"/>
  <rect x="362" y="333" width="9" height="9" rx="2" class="cell" fill-opacity="0.09"/>
  <rect x="362" y="344" width="9" height="9" rx="2" class="cell" fill-opacity="0.09"/>
  <rect x="372" y="278" width="9" height="9" rx="2" class="cell" fill-opacity="1.00"/>
  <rect x="372" y="289" width="9" height="9" rx="2" class="cell" fill-opacity="0.62"/>
  <rect x="372" y="300" width="9" height="9" rx="2" class="cell" fill-opacity="1.00"/>
  <rect x="372" y="311" width="9" height="9" rx="2" class="cell" fill-opacity="0.62"/>
  <rect x="372" y="322" width="9" height="9" rx="2" class="cell" fill-opacity="0.82"/>
  <rect x="372" y="333" width="9" height="9" rx="2" class="cell" fill-opacity="1.00"/>
  <rect x="372" y="344" width="9" height="9" rx="2" class="cell" fill-opacity="0.40"/>
  <rect x="384" y="278" width="9" height="9" rx="2" class="cell" fill-opacity="0.82"/>
  <rect x="384" y="289" width="9" height="9" rx="2" class="cell" fill-opacity="0.82"/>
  <rect x="384" y="300" width="9" height="9" rx="2" class="cell" fill-opacity="0.82"/>
  <rect x="384" y="311" width="9" height="9" rx="2" class="cell" fill-opacity="1.00"/>
  <rect x="384" y="322" width="9" height="9" rx="2" class="cell" fill-opacity="0.62"/>
  <rect x="384" y="333" width="9" height="9" rx="2" class="cell" fill-opacity="0.82"/>
  <rect x="384" y="344" width="9" height="9" rx="2" class="cell" fill-opacity="0.82"/>
  <rect x="394" y="278" width="9" height="9" rx="2" class="cell" fill-opacity="1.00"/>
  <rect x="394" y="289" width="9" height="9" rx="2" class="cell" fill-opacity="1.00"/>
  <rect x="394" y="300" width="9" height="9" rx="2" class="cell" fill-opacity="1.00"/>
  <rect x="394" y="311" width="9" height="9" rx="2" class="cell" fill-opacity="1.00"/>
  <rect x="394" y="322" width="9" height="9" rx="2" class="cell" fill-opacity="1.00"/>
  <rect x="394" y="333" width="9" height="9" rx="2" class="cell" fill-opacity="0.62"/>
  <rect x="394" y="344" width="9" height="9" rx="2" class="cell" fill-opacity="1.00"/>
  <rect x="406" y="278" width="9" height="9" rx="2" class="cell" fill-opacity="1.00"/>
  <rect x="406" y="289" width="9" height="9" rx="2" class="cell" fill-opacity="1.00"/>
  <rect x="406" y="300" width="9" height="9" rx="2" class="cell" fill-opacity="1.00"/>
  <rect x="406" y="311" width="9" height="9" rx="2" class="cell" fill-opacity="1.00"/>
  <rect x="406" y="322" width="9" height="9" rx="2" class="cell" fill-opacity="0.62"/>
  <rect x="406" y="333" width="9" height="9" rx="2" class="cell" fill-opacity="1.00"/>
  <rect x="406" y="344" width="9" height="9" rx="2" class="cell" fill-opacity="0.09"/>
  <rect x="416" y="278" width="9" height="9" rx="2" class="cell" fill-opacity="0.09"/>
  <rect x="416" y="289" width="9" height="9" rx="2" class="cell" fill-opacity="0.62"/>
  <rect x="416" y="300" width="9" height="9" rx="2" class="cell" fill-opacity="0.82"/>
  <rect x="416" y="311" width="9" height="9" rx="2" class="cell" fill-opacity="0.62"/>
  <rect x="416" y="322" width="9" height="9" rx="2" class="cell" fill-opacity="1.00"/>
  <rect x="416" y="333" width="9" height="9" rx="2" class="cell" fill-opacity="0.40"/>
  <rect x="416" y="344" width="9" height="9" rx="2" class="cell" fill-opacity="1.00"/>
  <rect x="428" y="278" width="9" height="9" rx="2" class="cell" fill-opacity="1.00"/>
  <rect x="428" y="289" width="9" height="9" rx="2" class="cell" fill-opacity="1.00"/>
  <rect x="428" y="300" width="9" height="9" rx="2" class="cell" fill-opacity="1.00"/>
  <rect x="428" y="311" width="9" height="9" rx="2" class="cell" fill-opacity="1.00"/>
  <rect x="428" y="322" width="9" height="9" rx="2" class="cell" fill-opacity="1.00"/>
  <rect x="428" y="333" width="9" height="9" rx="2" class="cell" fill-opacity="1.00"/>
  <rect x="428" y="344" width="9" height="9" rx="2" class="cell" fill-opacity="1.00"/>
  <rect x="438" y="278" width="9" height="9" rx="2" class="cell" fill-opacity="1.00"/>
  <rect x="438" y="289" width="9" height="9" rx="2" class="cell" fill-opacity="1.00"/>
  <rect x="438" y="300" width="9" height="9" rx="2" class="cell" fill-opacity="1.00"/>
  <rect x="438" y="311" width="9" height="9" rx="2" class="cell" fill-opacity="1.00"/>
  <rect x="438" y="322" width="9" height="9" rx="2" class="cell" fill-opacity="1.00"/>
  <rect x="438" y="333" width="9" height="9" rx="2" class="cell" fill-opacity="1.00"/>
  <rect x="438" y="344" width="9" height="9" rx="2" class="cell" fill-opacity="0.09"/>
  <rect x="450" y="278" width="9" height="9" rx="2" class="cell" fill-opacity="1.00"/>
  <rect x="450" y="289" width="9" height="9" rx="2" class="cell" fill-opacity="1.00"/>
  <rect x="450" y="300" width="9" height="9" rx="2" class="cell" fill-opacity="1.00"/>
  <rect x="450" y="311" width="9" height="9" rx="2" class="cell" fill-opacity="1.00"/>
  <rect x="450" y="322" width="9" height="9" rx="2" class="cell" fill-opacity="1.00"/>
  <rect x="450" y="333" width="9" height="9" rx="2" class="cell" fill-opacity="1.00"/>
  <rect x="450" y="344" width="9" height="9" rx="2" class="cell" fill-opacity="1.00"/>
  <rect x="460" y="278" width="9" height="9" rx="2" class="cell" fill-opacity="1.00"/>
  <rect x="460" y="289" width="9" height="9" rx="2" class="cell" fill-opacity="1.00"/>
  <rect x="460" y="300" width="9" height="9" rx="2" class="cell" fill-opacity="1.00"/>
  <rect x="460" y="311" width="9" height="9" rx="2" class="cell" fill-opacity="1.00"/>
  <rect x="460" y="322" width="9" height="9" rx="2" class="cell" fill-opacity="1.00"/>
  <rect x="460" y="333" width="9" height="9" rx="2" class="cell" fill-opacity="1.00"/>
  <rect x="460" y="344" width="9" height="9" rx="2" class="cell" fill-opacity="1.00"/>
  <rect x="472" y="278" width="9" height="9" rx="2" class="cell" fill-opacity="1.00"/>
  <rect x="472" y="289" width="9" height="9" rx="2" class="cell" fill-opacity="1.00"/>
  <rect x="472" y="300" width="9" height="9" rx="2" class="cell" fill-opacity="1.00"/>
  <rect x="472" y="311" width="9" height="9" rx="2" class="cell" fill-opacity="1.00"/>
  <rect x="472" y="322" width="9" height="9" rx="2" class="cell" fill-opacity="1.00"/>
  <rect x="472" y="333" width="9" height="9" rx="2" class="cell" fill-opacity="1.00"/>
  <rect x="472" y="344" width="9" height="9" rx="2" class="cell" fill-opacity="1.00"/>
  <rect x="482" y="278" width="9" height="9" rx="2" class="cell" fill-opacity="1.00"/>
  <rect x="482" y="289" width="9" height="9" rx="2" class="cell" fill-opacity="1.00"/>
  <rect x="482" y="300" width="9" height="9" rx="2" class="cell" fill-opacity="1.00"/>
  <rect x="482" y="311" width="9" height="9" rx="2" class="cell" fill-opacity="1.00"/>
  <rect x="482" y="322" width="9" height="9" rx="2" class="cell" fill-opacity="1.00"/>
  <rect x="482" y="333" width="9" height="9" rx="2" class="cell" fill-opacity="1.00"/>
  <rect x="482" y="344" width="9" height="9" rx="2" class="cell" fill-opacity="1.00"/>
  <rect x="494" y="278" width="9" height="9" rx="2" class="cell" fill-opacity="1.00"/>
  <rect x="494" y="289" width="9" height="9" rx="2" class="cell" fill-opacity="1.00"/>
  <rect x="494" y="300" width="9" height="9" rx="2" class="cell" fill-opacity="1.00"/>
  <rect x="494" y="311" width="9" height="9" rx="2" class="cell" fill-opacity="0.82"/>
  <rect x="494" y="322" width="9" height="9" rx="2" class="cell" fill-opacity="1.00"/>
  <rect x="494" y="333" width="9" height="9" rx="2" class="cell" fill-opacity="1.00"/>
  <rect x="494" y="344" width="9" height="9" rx="2" class="cell" fill-opacity="1.00"/>
  <rect x="504" y="278" width="9" height="9" rx="2" class="cell" fill-opacity="1.00"/>
  <rect x="504" y="289" width="9" height="9" rx="2" class="cell" fill-opacity="1.00"/>
  <rect x="504" y="300" width="9" height="9" rx="2" class="cell" fill-opacity="1.00"/>
  <rect x="504" y="311" width="9" height="9" rx="2" class="cell" fill-opacity="1.00"/>
  <rect x="504" y="322" width="9" height="9" rx="2" class="cell" fill-opacity="1.00"/>
  <rect x="504" y="333" width="9" height="9" rx="2" class="cell" fill-opacity="1.00"/>
  <rect x="504" y="344" width="9" height="9" rx="2" class="cell" fill-opacity="1.00"/>
  <rect x="516" y="278" width="9" height="9" rx="2" class="cell" fill-opacity="1.00"/>
  <rect x="516" y="289" width="9" height="9" rx="2" class="cell" fill-opacity="1.00"/>
  <rect x="516" y="300" width="9" height="9" rx="2" class="cell" fill-opacity="1.00"/>
  <rect x="516" y="311" width="9" height="9" rx="2" class="cell" fill-opacity="1.00"/>
  <rect x="516" y="322" width="9" height="9" rx="2" class="cell" fill-opacity="1.00"/>
  <rect x="516" y="333" width="9" height="9" rx="2" class="cell" fill-opacity="1.00"/>
  <rect x="516" y="344" width="9" height="9" rx="2" class="cell" fill-opacity="1.00"/>
  <rect x="526" y="278" width="9" height="9" rx="2" class="cell" fill-opacity="1.00"/>
  <rect x="526" y="289" width="9" height="9" rx="2" class="cell" fill-opacity="1.00"/>
  <rect x="526" y="300" width="9" height="9" rx="2" class="cell" fill-opacity="1.00"/>
  <rect x="526" y="311" width="9" height="9" rx="2" class="cell" fill-opacity="1.00"/>
  <rect x="526" y="322" width="9" height="9" rx="2" class="cell" fill-opacity="1.00"/>
  <rect x="526" y="333" width="9" height="9" rx="2" class="cell" fill-opacity="1.00"/>
  <rect x="526" y="344" width="9" height="9" rx="2" class="cell" fill-opacity="0.40"/>
  <rect x="538" y="278" width="9" height="9" rx="2" class="cell" fill-opacity="0.62"/>
  <rect x="538" y="289" width="9" height="9" rx="2" class="cell" fill-opacity="1.00"/>
  <rect x="538" y="300" width="9" height="9" rx="2" class="cell" fill-opacity="1.00"/>
  <rect x="538" y="311" width="9" height="9" rx="2" class="cell" fill-opacity="1.00"/>
  <rect x="538" y="322" width="9" height="9" rx="2" class="cell" fill-opacity="1.00"/>
  <rect x="538" y="333" width="9" height="9" rx="2" class="cell" fill-opacity="0.82"/>
  <rect x="538" y="344" width="9" height="9" rx="2" class="cell" fill-opacity="1.00"/>
  <rect x="548" y="278" width="9" height="9" rx="2" class="cell" fill-opacity="1.00"/>
  <rect x="548" y="289" width="9" height="9" rx="2" class="cell" fill-opacity="1.00"/>
  <rect x="548" y="300" width="9" height="9" rx="2" class="cell" fill-opacity="1.00"/>
  <rect x="548" y="311" width="9" height="9" rx="2" class="cell" fill-opacity="1.00"/>
  <rect x="548" y="322" width="9" height="9" rx="2" class="cell" fill-opacity="1.00"/>
  <rect x="548" y="333" width="9" height="9" rx="2" class="cell" fill-opacity="1.00"/>
  <rect x="548" y="344" width="9" height="9" rx="2" class="cell" fill-opacity="1.00"/>
  <rect x="560" y="278" width="9" height="9" rx="2" class="cell" fill-opacity="1.00"/>
  <rect x="560" y="289" width="9" height="9" rx="2" class="cell" fill-opacity="1.00"/>
  <rect x="560" y="300" width="9" height="9" rx="2" class="cell" fill-opacity="1.00"/>
  <rect x="560" y="311" width="9" height="9" rx="2" class="cell" fill-opacity="1.00"/>
  <rect x="560" y="322" width="9" height="9" rx="2" class="cell" fill-opacity="0.82"/>
  <rect x="560" y="333" width="9" height="9" rx="2" class="cell" fill-opacity="1.00"/>
  <rect x="560" y="344" width="9" height="9" rx="2" class="cell" fill-opacity="0.40"/>
  <rect x="570" y="278" width="9" height="9" rx="2" class="cell" fill-opacity="0.09"/>
  <rect x="570" y="289" width="9" height="9" rx="2" class="cell" fill-opacity="1.00"/>
  <rect x="570" y="300" width="9" height="9" rx="2" class="cell" fill-opacity="1.00"/>
  <rect x="570" y="311" width="9" height="9" rx="2" class="cell" fill-opacity="1.00"/>
  <rect x="570" y="322" width="9" height="9" rx="2" class="cell" fill-opacity="1.00"/>
  <rect x="570" y="333" width="9" height="9" rx="2" class="cell" fill-opacity="1.00"/>
  <rect x="570" y="344" width="9" height="9" rx="2" class="cell" fill-opacity="1.00"/>
  <rect x="582" y="278" width="9" height="9" rx="2" class="cell" fill-opacity="1.00"/>
  <rect x="582" y="289" width="9" height="9" rx="2" class="cell" fill-opacity="1.00"/>
  <rect x="582" y="300" width="9" height="9" rx="2" class="cell" fill-opacity="1.00"/>
  <rect x="582" y="311" width="9" height="9" rx="2" class="cell" fill-opacity="1.00"/>
  <rect x="582" y="322" width="9" height="9" rx="2" class="cell" fill-opacity="1.00"/>
  <rect x="582" y="333" width="9" height="9" rx="2" class="cell" fill-opacity="1.00"/>
  <rect x="582" y="344" width="9" height="9" rx="2" class="cell" fill-opacity="1.00"/>
  <rect x="592" y="278" width="9" height="9" rx="2" class="cell" fill-opacity="0.40"/>
  <rect x="592" y="289" width="9" height="9" rx="2" class="cell" fill-opacity="1.00"/>
  <rect x="592" y="300" width="9" height="9" rx="2" class="cell" fill-opacity="1.00"/>
  <rect x="592" y="311" width="9" height="9" rx="2" class="cell" fill-opacity="1.00"/>
  <rect x="592" y="322" width="9" height="9" rx="2" class="cell" fill-opacity="1.00"/>
  <rect x="592" y="333" width="9" height="9" rx="2" class="cell" fill-opacity="1.00"/>
  <rect x="592" y="344" width="9" height="9" rx="2" class="cell" fill-opacity="1.00"/>
  <rect x="604" y="278" width="9" height="9" rx="2" class="cell" fill-opacity="1.00"/>
  <rect x="604" y="289" width="9" height="9" rx="2" class="cell" fill-opacity="1.00"/>
  <rect x="604" y="300" width="9" height="9" rx="2" class="cell" fill-opacity="1.00"/>
  <rect x="604" y="311" width="9" height="9" rx="2" class="cell" fill-opacity="1.00"/>
  <rect x="604" y="322" width="9" height="9" rx="2" class="cell" fill-opacity="1.00"/>
  <rect x="604" y="333" width="9" height="9" rx="2" class="cell" fill-opacity="1.00"/>
  <rect x="604" y="344" width="9" height="9" rx="2" class="cell" fill-opacity="1.00"/>
  <rect x="614" y="278" width="9" height="9" rx="2" class="cell" fill-opacity="1.00"/>
  <rect x="614" y="289" width="9" height="9" rx="2" class="cell" fill-opacity="1.00"/>
  <rect x="614" y="300" width="9" height="9" rx="2" class="cell" fill-opacity="1.00"/>
  <rect x="614" y="311" width="9" height="9" rx="2" class="cell" fill-opacity="1.00"/>
  <rect x="614" y="322" width="9" height="9" rx="2" class="cell" fill-opacity="1.00"/>
  <rect x="614" y="333" width="9" height="9" rx="2" class="cell" fill-opacity="1.00"/>
  <rect x="614" y="344" width="9" height="9" rx="2" class="cell" fill-opacity="1.00"/>
  <rect x="626" y="278" width="9" height="9" rx="2" class="cell" fill-opacity="1.00"/>
  <rect x="626" y="289" width="9" height="9" rx="2" class="cell" fill-opacity="1.00"/>
  <rect x="626" y="300" width="9" height="9" rx="2" class="cell" fill-opacity="1.00"/>
  <rect x="626" y="311" width="9" height="9" rx="2" class="cell" fill-opacity="1.00"/>
  <rect x="626" y="322" width="9" height="9" rx="2" class="cell" fill-opacity="1.00"/>
  <rect x="626" y="333" width="9" height="9" rx="2" class="cell" fill-opacity="1.00"/>
  <rect x="626" y="344" width="9" height="9" rx="2" class="cell" fill-opacity="1.00"/>
  <rect x="636" y="278" width="9" height="9" rx="2" class="cell" fill-opacity="1.00"/>
  <rect x="636" y="289" width="9" height="9" rx="2" class="cell" fill-opacity="1.00"/>
  <rect x="636" y="300" width="9" height="9" rx="2" class="cell" fill-opacity="1.00"/>
  <rect x="636" y="311" width="9" height="9" rx="2" class="cell" fill-opacity="1.00"/>
  <rect x="636" y="322" width="9" height="9" rx="2" class="cell" fill-opacity="1.00"/>
  <rect x="636" y="333" width="9" height="9" rx="2" class="cell" fill-opacity="1.00"/>
  <rect x="636" y="344" width="9" height="9" rx="2" class="cell" fill-opacity="1.00"/>
  <rect x="648" y="278" width="9" height="9" rx="2" class="cell" fill-opacity="1.00"/>
  <rect x="648" y="289" width="9" height="9" rx="2" class="cell" fill-opacity="1.00"/>
  <rect x="648" y="300" width="9" height="9" rx="2" class="cell" fill-opacity="1.00"/>
  <rect x="648" y="311" width="9" height="9" rx="2" class="cell" fill-opacity="1.00"/>
  <rect x="648" y="322" width="9" height="9" rx="2" class="cell" fill-opacity="1.00"/>
  <rect x="648" y="333" width="9" height="9" rx="2" class="cell" fill-opacity="1.00"/>
  <rect x="648" y="344" width="9" height="9" rx="2" class="cell" fill-opacity="1.00"/>
  <rect x="658" y="278" width="9" height="9" rx="2" class="cell" fill-opacity="1.00"/>
  <rect x="658" y="289" width="9" height="9" rx="2" class="cell" fill-opacity="1.00"/>
  <rect x="658" y="300" width="9" height="9" rx="2" class="cell" fill-opacity="1.00"/>
  <rect x="658" y="311" width="9" height="9" rx="2" class="cell" fill-opacity="1.00"/>
  <rect x="658" y="322" width="9" height="9" rx="2" class="cell" fill-opacity="1.00"/>
  <rect x="658" y="333" width="9" height="9" rx="2" class="cell" fill-opacity="1.00"/>
  <rect x="658" y="344" width="9" height="9" rx="2" class="cell" fill-opacity="1.00"/>
  <rect x="670" y="278" width="9" height="9" rx="2" class="cell" fill-opacity="1.00"/>
  <rect x="670" y="289" width="9" height="9" rx="2" class="cell" fill-opacity="1.00"/>
  <rect x="670" y="300" width="9" height="9" rx="2" class="cell" fill-opacity="1.00"/>
  <rect x="670" y="311" width="9" height="9" rx="2" class="cell" fill-opacity="1.00"/>
  <rect x="670" y="322" width="9" height="9" rx="2" class="cell" fill-opacity="1.00"/>
  <rect x="670" y="333" width="9" height="9" rx="2" class="cell" fill-opacity="1.00"/>
  <rect x="670" y="344" width="9" height="9" rx="2" class="cell" fill-opacity="1.00"/>
  <rect x="680" y="278" width="9" height="9" rx="2" class="cell" fill-opacity="1.00"/>
  <rect x="680" y="289" width="9" height="9" rx="2" class="cell" fill-opacity="1.00"/>
  <rect x="680" y="300" width="9" height="9" rx="2" class="cell" fill-opacity="1.00"/>
  <rect x="680" y="311" width="9" height="9" rx="2" class="cell" fill-opacity="1.00"/>
  <rect x="680" y="322" width="9" height="9" rx="2" class="cell" fill-opacity="1.00"/>
  <rect x="680" y="333" width="9" height="9" rx="2" class="cell" fill-opacity="1.00"/>
  <rect x="680" y="344" width="9" height="9" rx="2" class="cell" fill-opacity="1.00"/>
  <rect x="692" y="278" width="9" height="9" rx="2" class="cell" fill-opacity="1.00"/>
  <rect x="692" y="289" width="9" height="9" rx="2" class="cell" fill-opacity="1.00"/>
  <rect x="692" y="300" width="9" height="9" rx="2" class="cell" fill-opacity="1.00"/>
  <rect x="692" y="311" width="9" height="9" rx="2" class="cell" fill-opacity="1.00"/>
  <rect x="692" y="322" width="9" height="9" rx="2" class="cell" fill-opacity="1.00"/>
  <rect x="692" y="333" width="9" height="9" rx="2" class="cell" fill-opacity="1.00"/>
  <rect x="692" y="344" width="9" height="9" rx="2" class="cell" fill-opacity="1.00"/>
  <rect x="702" y="278" width="9" height="9" rx="2" class="cell" fill-opacity="1.00"/>
  <rect x="702" y="289" width="9" height="9" rx="2" class="cell" fill-opacity="1.00"/>
  <rect x="702" y="300" width="9" height="9" rx="2" class="cell" fill-opacity="1.00"/>
  <rect x="702" y="311" width="9" height="9" rx="2" class="cell" fill-opacity="1.00"/>
  <rect x="702" y="322" width="9" height="9" rx="2" class="cell" fill-opacity="1.00"/>
  <rect x="702" y="333" width="9" height="9" rx="2" class="cell" fill-opacity="1.00"/>
  <rect x="702" y="344" width="9" height="9" rx="2" class="cell" fill-opacity="1.00"/>
  <rect x="714" y="278" width="9" height="9" rx="2" class="cell" fill-opacity="1.00"/>
  <rect x="714" y="289" width="9" height="9" rx="2" class="cell" fill-opacity="1.00"/>
  <rect x="714" y="300" width="9" height="9" rx="2" class="cell" fill-opacity="1.00"/>
  <rect x="714" y="311" width="9" height="9" rx="2" class="cell" fill-opacity="1.00"/>
  <rect x="714" y="322" width="9" height="9" rx="2" class="cell" fill-opacity="1.00"/>
  <rect x="714" y="333" width="9" height="9" rx="2" class="cell" fill-opacity="1.00"/>
  <rect x="714" y="344" width="9" height="9" rx="2" class="cell" fill-opacity="1.00"/>
  <rect x="724" y="278" width="9" height="9" rx="2" class="cell" fill-opacity="1.00"/>
  <rect x="724" y="289" width="9" height="9" rx="2" class="cell" fill-opacity="1.00"/>
  <rect x="724" y="300" width="9" height="9" rx="2" class="cell" fill-opacity="1.00"/>
  <rect x="724" y="311" width="9" height="9" rx="2" class="cell" fill-opacity="1.00"/>
  <rect x="724" y="322" width="9" height="9" rx="2" class="cell" fill-opacity="1.00"/>
  <rect x="724" y="333" width="9" height="9" rx="2" class="cell" fill-opacity="1.00"/>
  <rect x="724" y="344" width="9" height="9" rx="2" class="cell" fill-opacity="1.00"/>
  <rect x="736" y="278" width="9" height="9" rx="2" class="cell" fill-opacity="0.40"/>
  <rect x="736" y="289" width="9" height="9" rx="2" class="cell" fill-opacity="0.62"/>
  <rect x="736" y="300" width="9" height="9" rx="2" class="cell" fill-opacity="1.00"/>
  <rect x="736" y="311" width="9" height="9" rx="2" class="cell" fill-opacity="1.00"/>
  <rect x="736" y="322" width="9" height="9" rx="2" class="cell" fill-opacity="1.00"/>
  <rect x="736" y="333" width="9" height="9" rx="2" class="cell" fill-opacity="1.00"/>
  <rect x="736" y="344" width="9" height="9" rx="2" class="cell" fill-opacity="0.40"/>
  <rect x="746" y="278" width="9" height="9" rx="2" class="cell" fill-opacity="0.09"/>
  </g>
</svg>